<?xml version="1.0" encoding="UTF-8"?>
<svg id="g" data-name="Layer 10" xmlns="http://www.w3.org/2000/svg" viewBox="0 0 1200 1200">
  <defs>
    <style>
      .j {
        fill: #4e4eb1;
      }

      .k {
        fill: #fff;
      }

      .l {
        fill: #94ea18;
      }

      .m {
        fill: #3f3da0;
      }
    </style>
  </defs>
  <path class="j" d="M1026.11,508.07v606.14c0,25.85-20.96,46.8-46.81,46.8H216.38c-25.85,0-46.81-20.95-46.81-46.8V508.07c0-25.85,20.96-46.81,46.81-46.81h24.34c.23-9.13.81-18.28,1.76-27.43,6.81-65.43,32.02-127.21,72.9-178.69,30.81-38.81,69.55-70.56,113.35-93.12-1.1-9.47-3.19-19.3-6.2-29.01-4.19-13.51-16.95-54.61,7.94-88.38,14.02-19.04,36.54-29.97,61.78-29.97,11.78,0,22.24,2.31,28.55,3.71l1.06.23c41.19,9.1,82.37,32.17,122.41,68.55,22.09,20.08,39.04,39.98,49.6,53.49,53.65,17.44,102.38,47.9,141.81,88.77,44.44,46.07,75.21,103.3,88.97,165.51l.03.16c1.21,5.53,6.3,31.51,4.09,66.18h50.53c25.85,0,46.81,20.96,46.81,46.81Z"/>
  <g>
    <g>
      <polygon class="l" points="911.94 512.54 911.94 885.6 817.63 885.6 817.63 622.92 850.38 640.91 848.07 599.67 881.89 602.46 867.06 568.16 897.65 563.99 873.55 534.32 894.99 512.54 911.94 512.54"/>
      <polygon class="l" points="798.22 627.73 798.22 885.6 703.91 885.6 703.91 605.81 735.88 605.81 734.99 628.87 764.18 617.75 772.98 652.97 798.22 627.73"/>
      <rect class="l" x="590.19" y="699.08" width="94.3" height="186.53"/>
      <rect class="l" x="476.47" y="792.34" width="94.3" height="93.26"/>
    </g>
    <g>
      <path class="k" d="M866.62,471.66c-6.56,48.48-33.94,76.14-35.73,81.74-2.48,7.86-6.31,22.33-16.95,29.64-10.5,7.2-26.5,9.63-42.59,5.55-13.34-3.39-22.29-8.8-28.94-13.48-11.58-1.07-22.56-3.09-30.25-5-11.05-2.74-21.86-6.4-32.3-10.94-7.16-3.09-14.16-6.59-20.95-10.43-1.15,2.52-2.41,4.99-3.81,7.43-10.1,16.91-29.18,34.32-48.64,39.27-27.8,6.2-34.19-28.79-30.92-54.86-5.27,4.84-11.11,9.07-18.06,13.42-20.08,12.53-58.23,19.42-71.27,7.28-12.68-11.81-3.51-48.64,9.17-67.45.52-.79,1.04-1.56,1.59-2.31-13.89,3.86-27.03,9.93-38.55,18.89-20.96,16.27-30.23,40.06-25.3,63.73,10.39-.79,88.74-4.15,117.38,53.06,19.89,39.73-10.47,28.34-18.03,27.74-24.39-1.9-41.51,7.12-53.05,8.96-6.01.96-21.83,2.59-36-3.19,8.72,12.54,10.58,28.33,10.96,34.38.42,6.75-1.1,15.84-1.07,26.84.04,8.01.89,17.03,3.92,26.89,2.24,7.25,19.97,34.39-23.13,23.66-66.88-16.62-77.78-104.86-77.6-104.18-1.7-10.39-.45-30.74-.45-30.74v-.04c-39.95-54.88-60.61-124.21-53.01-197.41,11.58-111.4,86.59-201.61,185.64-238.1,3.84-24.63,1.78-55.56-8-87.06-14.69-47.31,12.2-40.45,28.08-36.95,71.12,15.72,131.79,90.3,148.24,115.27,105.09,26.58,185.27,110.8,208.27,214.77.75,3.39,5.99,29.59,1.38,63.61Z"/>
      <path class="l" d="M492.25,75.5c5.5,0,11.52,1.42,16.47,2.51,71.12,15.72,131.79,90.3,148.24,115.27,105.09,26.58,185.27,110.8,208.27,214.77.75,3.39,5.99,29.59,1.38,63.61-6.56,48.48-33.94,76.14-35.73,81.74-2.48,7.86-6.31,22.33-16.95,29.64-7.05,4.84-16.6,7.52-26.98,7.52-5.07,0-10.33-.64-15.61-1.98-13.34-3.39-22.29-8.8-28.94-13.48-11.58-1.07-22.56-3.09-30.25-5-11.05-2.74-21.86-6.4-32.3-10.94-7.16-3.09-14.16-6.59-20.95-10.43-1.15,2.52-2.41,4.99-3.81,7.43-10.1,16.91-29.18,34.32-48.64,39.27-2.2.49-4.26.72-6.2.72-22.56,0-27.73-31.57-24.72-55.59-5.27,4.84-11.11,9.07-18.06,13.42-12.73,7.94-32.72,13.62-48.97,13.62-9.39,0-17.53-1.89-22.3-6.34-12.68-11.81-3.51-48.64,9.17-67.45.52-.79,1.04-1.56,1.59-2.31-13.89,3.86-27.03,9.93-38.55,18.89-20.96,16.27-30.23,40.06-25.3,63.73,1.66-.13,5.05-.32,9.69-.32,24.44,0,83.62,5.3,107.69,53.38,12.44,24.85,5.22,29.7-3.78,29.7-5.39,0-11.42-1.74-14.25-1.96-2.3-.18-4.54-.26-6.71-.26-20.86,0-35.89,7.55-46.34,9.22-2.63.42-7.14.97-12.56.97-6.98,0-15.47-.91-23.44-4.16,8.72,12.54,10.58,28.33,10.96,34.38.42,6.75-1.1,15.84-1.07,26.84.04,8.01.89,17.03,3.92,26.89,1.88,6.08,14.65,26.14-6.68,26.14-4.11,0-9.49-.74-16.45-2.48-66.62-16.56-77.7-104.19-77.61-104.19,0,0,0,0,0,0-1.7-10.39-.45-30.74-.45-30.74v-.04c-39.95-54.88-60.61-124.21-53.01-197.41,11.58-111.4,86.59-201.61,185.64-238.1,3.84-24.63,1.78-55.56-8-87.06-10.11-32.56-.52-39.46,11.61-39.46M492.25,64.66h0c-11.93,0-18.3,5.24-21.53,9.63-6.75,9.16-6.89,23.11-.44,43.89,8.06,25.96,11.01,52.68,8.46,76.01-48.7,19.18-91.54,50.9-124.21,92.05-34.95,44.03-56.5,96.85-62.31,152.76-7.45,71.69,11.28,143.18,52.77,201.77-.3,6.8-.66,20.57.77,29.29h.03c.55,5.23,2.62,13.77,2.9,14.94,2.01,8.19,5.68,20.72,11.79,33.91,15.93,34.37,40.48,56.54,70.98,64.12,7.57,1.88,13.8,2.8,19.07,2.8,9.38,0,16.11-3.01,20-8.94,6.36-9.71,1.24-21.49-1.82-28.54-.42-.96-.99-2.28-1.13-2.72-2.3-7.49-3.39-15.04-3.44-23.74-.01-4.93.31-9.46.63-13.83.35-4.85.68-9.43.42-13.62-.24-3.82-.98-10.84-3.23-18.83,1.6.09,3.23.13,4.89.13,6.1,0,11.13-.6,14.28-1.11,4.12-.66,8.5-1.98,13.14-3.37,8.91-2.68,19.02-5.72,31.48-5.72,1.95,0,3.92.08,5.87.23.44.04,1.85.31,2.88.51,3.25.63,7.71,1.48,12.21,1.48,10.62,0,15.86-4.87,18.38-8.95,5.1-8.26,3.59-19.5-4.9-36.46-9.61-19.2-24.88-33.99-45.48-44.11,16.72-1.18,35.52-6.93,48.52-15.04.38-.24.75-.47,1.12-.71,1.15,12.72,4.79,25.3,12.32,33.84,6.16,6.98,14.32,10.68,23.59,10.68,2.75,0,5.63-.33,8.56-.98l.16-.04.16-.04c22.76-5.79,43.36-25.23,54.24-42.53,4.05,2.04,8.12,3.95,12.18,5.7,10.94,4.76,22.38,8.64,33.99,11.51,8.64,2.15,19.07,3.94,29.01,4.99,6.94,4.66,16.46,10,30.12,13.47,6.05,1.53,12.2,2.31,18.28,2.31,12.5,0,24.26-3.35,33.12-9.43,12.99-8.92,17.77-24.36,20.62-33.59.12-.38.23-.75.34-1.1.55-.9,1.93-2.85,3.07-4.45,9.02-12.73,27.78-39.21,33.27-79.73,4.92-36.33-.86-64.32-1.54-67.4-11.77-53.21-38.1-102.18-76.14-141.6-37.37-38.74-84.33-66.44-136.03-80.3-10.43-15.06-29.59-38.38-53.01-59.67-33.5-30.44-67-49.53-99.58-56.73l-.97-.21c-5.13-1.14-11.51-2.55-17.84-2.55h0ZM442.69,562.99c-.4-16.55,7.59-32.52,22.37-44,3-2.34,6.2-4.5,9.57-6.47-1.73,5.23-3.12,10.59-4.03,15.79-2.87,16.33-1.07,29.19,5.2,37.56-12.68-2.26-24.23-2.87-33-2.87h-.1Z"/>
    </g>
    <path class="m" d="M865.24,408.05c-23-103.97-103.18-188.19-208.27-214.77-16.45-24.98-77.12-99.56-148.24-115.27-15.88-3.5-42.77-10.36-28.08,36.95,9.78,31.5,11.84,62.43,8,87.06-99.04,36.49-174.06,126.71-185.64,238.1-7.61,73.2,13.06,142.53,53.01,197.41v.04s-1.25,20.35.45,30.74c-.18-.68,10.73,87.56,77.6,104.18,43.11,10.73,25.37-16.41,23.13-23.66-3.02-9.86-3.88-18.88-3.92-26.89-.03-11,1.49-20.08,1.07-26.84-.38-6.05-2.24-21.83-10.96-34.38,14.17,5.78,29.99,4.15,36,3.19,11.54-1.84,28.65-10.86,53.05-8.96,7.57.6,37.93,11.99,18.03-27.74-28.64-57.21-106.99-53.85-117.38-53.06-4.92-23.68,4.34-47.46,25.3-63.73,11.53-8.96,24.67-15.02,38.55-18.89-.54.75-1.07,1.52-1.59,2.31-12.68,18.81-21.85,55.64-9.17,67.45,13.04,12.14,51.19,5.25,71.27-7.28,6.96-4.35,12.79-8.58,18.06-13.42-3.27,26.08,3.12,61.06,30.92,54.86,19.46-4.95,38.54-22.36,48.64-39.27,1.4-2.44,2.66-4.91,3.81-7.43,6.79,3.84,13.79,7.34,20.95,10.43,10.44,4.54,21.25,8.2,32.3,10.94,7.69,1.91,18.67,3.93,30.25,5,6.64,4.68,15.59,10.09,28.94,13.48,16.1,4.08,32.1,1.65,42.59-5.55,10.64-7.31,14.47-21.78,16.95-29.64,1.79-5.6,29.17-33.26,35.73-81.74,4.61-34.02-.64-60.22-1.38-63.61ZM698.62,535.21c.31-.04.62.09.77.37,4.68,7.86,11.96,14.67,19.01,21.8h0c-.58.01-21.3-8.58-39.01-23,6.13,1.27,12.39,1.79,19.23.83ZM671.77,527.49c-1.13-.46-1.3-.88-1.14-2.66.77-9.07,5.82-16.16,10.93-20.53.31-.26.81-.16.98.22,2.4,5.71,6.98,15.92,12.96,24.92.26.39.56.94-.42,1.04-8.52.98-18.84-1.18-23.31-3ZM691.99,476.52c4.83-32.33-15.17-44.17-15.17-44.17,0,0,22.94,5.93,25.68,24.26,2.75,18.33-10.51,19.91-10.51,19.91ZM677.71,497.73c.14-.01.2.12.11.22-4.65,4.56-9.67,11.35-13.41,20.9-.11.28-.46.37-.68.15-6.44-6.64-11.95-13.41-18.33-23.85-.11-.18.05-.41.26-.34,8.24,3.08,20.25,4.56,32.06,2.93ZM675.5,492.17c-12.08,1.41-29.28-1.93-32.72-3.84-.31-.18-.47-.54-.34-.85,2.81-7.23,14.05-17.91,23.85-21.82.52-.22,1.1.08,1.27.62,2.17,7.54,5.02,15.8,8.69,24.53.24.6-.12,1.27-.76,1.36ZM638.13,435.55c3.85-3.63,9.61-7.69,15.87-9.06,2.77-.61,5.45,1.25,5.76,4.05.64,5.98,1.45,12.83,3.65,22.74.04.15-.12.28-.26.23-11.11-3.76-19.5-9.49-25.1-17.11-.19-.27-.15-.64.08-.85ZM634.04,441.3c.12-.42.69-.5.92-.12,5.84,8.96,13.9,14.63,27.01,18.13.39.11.46.62.11.83-12.29,6.77-18.43,14.71-22.05,21.26-.15.24-.5.26-.64.01-6.03-10.09-8.48-28.11-5.36-40.11ZM504.85,481.07c-9.97,2.25-19.72,5.46-29.01,9.83-19.57,8.95-36.31,24.18-44.68,42.96-.24-3.48-.81-7.35-1.91-11.89-5.61-23.38-26.97-21.76-36.75-20.94-14.6,1.25-37.85,9.15-46.35-9.32-13.25-28.71,23.42-67.77,66.21-67.81,45.71-.04,70.58,37.07,74.57,43.54.3.5.98.58,1.42.19,17.52-15.34,42.4-13.11,42.4-13.11,0,0-12.73,10.33-25.91,26.55ZM506.46,325.88c-19.31,5.89-45.62,9.34-64.51-7.3-18.89-16.64-23.28-83.25,44.75-108.21,0,0-11.8,59.45,17.25,63,24.54,3,63.04-4.92,90.77,14.69,27.16,19.2,20.33,37.22-4.8,31.99-28.82-6.01-64.15-.07-83.46,5.83ZM650.12,553.16c-9.59,14.7-28,31.13-45.2,35.36-4.85,1.04-9.6.9-13.36-2.52-9.21-8.8-10.79-25.85-10.73-38.27.05-4.56.39-9.18,1.18-13.72,6.1-6.79,11.74-15,18.09-25.99,7.28,4.73,15.57,11.5,21.67,16.06,10.37,7.85,21.14,15.31,32.4,21.94-1.23,2.43-2.58,4.81-4.05,7.15ZM713.7,563.98c-18.41-4.71-35.76-12.35-52.07-21.86-1.49-.85-2.96-1.75-4.43-2.64-10.69-6.51-20.94-13.76-30.78-21.49-6.58-4.98-14.75-11.91-22.37-16.95,6.97-12.95,20.87-53.18,20.87-53.18,0,0-2.78,38.82,37.13,77.75,1.14,1.13,2.35,2.26,3.57,3.38.35.33.69.64,1.04.96,15.3,13.78,40.15,28.64,62.76,36.68.8.28,1.61.66,2.47,1.14-6.13-.95-12.19-2.2-18.17-3.78ZM766.42,461.91c-8.54,13.07-27.43,11.95-46.04-12.9-2.79-3.73-7.95-15.96-31.78-35.34-23.5-19.09-29.76-47.18-11.05-64.82,16.35-15.42,52.13-7.54,74.2,21.63,24.75,32.69,27.8,71.3,14.67,91.42Z"/>
  </g>
  <g>
    <path class="l" d="M250.23,965.33l-28.34,28.34v85.01l28.34-28.34v-56.67h28.34v-28.34h-28.34Z"/>
    <polygon class="l" points="373.09 993.66 373.09 1078.67 316.42 1078.67 288.08 1050.33 288.08 1021.81 316.23 993.66 316.42 993.66 344.76 1022 316.42 1022 316.42 1050.33 344.76 1050.33 344.76 993.66 316.42 993.66 288.08 965.33 344.76 965.33 373.09 993.66"/>
    <path class="l" d="M439.29,1050.33h-28.34v-85.01h-28.34v85.01l28.34,28.34h28.34v28.34l28.34,28.34v-56.67l-28.34-28.34ZM439.29,965.33v85.01h28.34v-56.67l-28.34-28.34Z"/>
    <path class="k" d="M533.82,965.33h-28.34v-56.67h-28.34v56.67l28.34,28.34h28.34v85.01h28.34v-85.01l-28.34-28.34ZM477.14,993.66v56.67l28.34,28.34v-85.01h-28.34Z"/>
    <path class="k" d="M600.01,1050.33v-85.01h-28.34v85.01l28.34,28.34h28.34v-28.34h-28.34ZM628.35,965.33v85.01l28.34,28.34v-113.35h-28.34Z"/>
    <path class="k" d="M666.2,965.33v113.35h28.34v-85.01l-28.34-28.34ZM722.88,965.33h-28.34v28.34h28.34v56.67l28.34,28.34v-85.01l-28.34-28.34Z"/>
    <path class="k" d="M789.07,965.33v-56.67h-28.34v56.67l28.34,28.34h28.34v-28.34h-28.34ZM789.07,1050.33v-56.67h-28.34v56.67l28.34,28.34h28.34v-28.34h-28.34Z"/>
    <path class="k" d="M911.94,993.66l-28.34-28.34h-56.67v85.01l28.34,28.34h56.67l-28.34-28.34h-28.34v-56.67h28.34v28.34h-28.34l28.34,28.34h.1l-.19-.19,28.42-28.4v-28.09Z"/>
    <path class="k" d="M949.77,965.33l-28.34,28.34v85.01l28.34-28.34v-56.67h28.34v-28.34h-28.34Z"/>
  </g>
</svg>