<?xml version="1.0" encoding="UTF-8"?>
<svg id="g" data-name="Layer 10" xmlns="http://www.w3.org/2000/svg" viewBox="0 0 1060.73 497.18">
  <defs>
    <style>
      .j {
        fill: #fff;
      }

      .k {
        fill: #94ea18;
      }
    </style>
  </defs>
  <path class="k" d="M187.15,204.67l-28.34,28.34v85.01l28.34-28.34v-56.67h28.34v-28.34h-28.34Z"/>
  <polygon class="k" points="310.01 233.01 310.01 318.02 253.34 318.02 225 289.68 225 261.16 253.15 233.01 253.34 233.01 281.68 261.35 253.34 261.35 253.34 289.68 281.68 289.68 281.68 233.01 253.34 233.01 225 204.67 281.68 204.67 310.01 233.01"/>
  <path class="k" d="M376.21,289.68h-28.34v-85.01h-28.34v85.01l28.34,28.34h28.34v28.34l28.34,28.34v-56.67l-28.34-28.34ZM376.21,204.67v85.01h28.34v-56.67l-28.34-28.34Z"/>
  <path class="j" d="M470.74,204.67h-28.34v-56.67h-28.34v56.67l28.34,28.34h28.34v85.01h28.34v-85.01l-28.34-28.34ZM414.06,233.01v56.67l28.34,28.34v-85.01h-28.34Z"/>
  <path class="j" d="M536.93,289.68v-85.01h-28.34v85.01l28.34,28.34h28.34v-28.34h-28.34ZM565.27,204.67v85.01l28.34,28.34v-113.35h-28.34Z"/>
  <path class="j" d="M603.12,204.67v113.35h28.34v-85.01l-28.34-28.34ZM659.8,204.67h-28.34v28.34h28.34v56.67l28.34,28.34v-85.01l-28.34-28.34Z"/>
  <path class="j" d="M725.99,204.67v-56.67h-28.34v56.67l28.34,28.34h28.34v-28.34h-28.34ZM725.99,289.68v-56.67h-28.34v56.67l28.34,28.34h28.34v-28.34h-28.34Z"/>
  <path class="j" d="M848.86,233.01l-28.34-28.34h-56.67v85.01l28.34,28.34h56.67l-28.34-28.34h-28.34v-56.67h28.34v28.34h-28.34l28.34,28.34h.1l-.19-.19,28.42-28.4v-28.09Z"/>
  <path class="j" d="M886.69,204.67l-28.34,28.34v85.01l28.34-28.34v-56.67h28.34v-28.34h-28.34Z"/>
</svg>